# xmcd
#
# Track frame offsets: 
#        150
#        12554
#        26583
#        39512
#        52924
#        66737
#        78991
#        92038
#        104170
#        119058
#        133647
#        147304
#        158518
#        172958
#        184197
#        199288
#        213608
#        227716
#        238779
#        251183
#        264729
#        278121
#        290716
#        302080
#        313768
#
# Disc length: 4707 seconds
#
# Revision: 4
# Processed by: cddbd v1.5.2PL0 Copyright (c) Steve Scherf et al.
# Submitted via: ExactAudioCopy v1.0b1
#
DISCID=86126119
DTITLE=Chris Clark - The Motown Collection [CD2]
DYEAR=2005
DGENRE=Soul
TTITLE0=Ask Any Girl
TTITLE1=Everything Is Good About You
TTITLE2=Try It Baby
TTITLE3=I Like Everything About You
TTITLE4=Take Me In Your Arms (Rock Me A Little While)
TTITLE5=In The Neighbourhood
TTITLE6=Yester-Me Yester-You Yesterday
TTITLE7=I Just Can't Forget Him
TTITLE8=If You Let Me Baby
TTITLE9=Your Wonderful Love
TTITLE10=Do Like I Do
TTITLE11=Let Me Go
TTITLE12=Mr. Maestro Play A Blue Sonata
TTITLE13=Soft Touch
TTITLE14=Crying In The Chapel
TTITLE15=He's Got The Whole World In His Hands
TTITLE16=It Must Be Love Baby
TTITLE17=Stay Away From Temptation
TTITLE18=He's Good For Me
TTITLE19=I Just Wanna Be Lovin' You
TTITLE20=Bad Seed
TTITLE21=Something's Wrong
TTITLE22=Mighty Good Lovin'
TTITLE23=Everything's Right Everything's Wrong
TTITLE24=What You Doing
EXTD=
EXTT0=
EXTT1=
EXTT2=
EXTT3=
EXTT4=
EXTT5=
EXTT6=
EXTT7=
EXTT8=
EXTT9=
EXTT10=
EXTT11=
EXTT12=
EXTT13=
EXTT14=
EXTT15=
EXTT16=
EXTT17=
EXTT18=
EXTT19=
EXTT20=
EXTT21=
EXTT22=
EXTT23=
EXTT24=
PLAYORDER=
